{"title":"Priest 2011 DVDrip English Klam","uid":6675743,"size":1297095456,"categoryP":"video","categoryS":"movies","magnet":"?xt=urn:btih:b5da603bcac2bf5426259fc4956900562c8e57e4&amp;dn=Priest+2011+DVDrip+English+Klam&amp;tr=udp%3A%2F%2Ftracker.openbittorrent.com%3A80&amp;tr=udp%3A%2F%2Fopen.demonii.com%3A1337&amp;tr=udp%3A%2F%2Ftracker.coppersurfer.tk%3A6969&amp;tr=udp%3A%2F%2Fexodus.desync.com%3A6969","seeders":0,"leechers":0,"uploader":"Klambake","files":-1,"time":1316019576,"description":"With: Paul Bettany, Cam Gigandet en Maggie Q\n\n'Priest' speelt zich af in een wereld verwoest door een oorlog tussen de mens en vampieren. Een priester- en vampiervechter (Paul Bettany), een sheriff (Cam Gigandet) en een priesteres (Maggie Q) vormen een team, om jacht te maken op een groep moordzuchtige vampieren die het nichtje van de priester hebben gekidnapt.\n\nA priest disobeys church law to track down the vampires who kidnapped his niece. \n\n------------------ Dutch Friends ------------------\nYou can find my Friends at: http://www.Film-Test.nl \n------ They got my dutchs subs ---- and more ------\n\nGeneral:\n\nComplete name                    : Priest\\Priest.avi\nFormat                           : AVI\nFormat/Info                      : Audio Video Interleave\nFile size                        : 1.21 GiB\nDuration                         : 1h 23mn\nOverall bit rate                 : 2 062 Kbps\n\nVideo:\n\nFormat                           : MPEG-4 Visual\nFormat profile                   : Simple@L3\nFormat settings, BVOP            : No\nFormat settings, QPel            : No\nFormat settings, GMC             : No warppoints\nFormat settings, Matrix          : Default (H.263)\nCodec ID                         : XVID\nCodec ID/Hint                    : XviD\nDuration                         : 1h 23mn\nBit rate                         : 1 603 Kbps\nWidth                            : 720 pixels\nHeight                           : 304 pixels\nDisplay aspect ratio             : 2.35:1\nFrame rate                       : 25.000 fps\nColor space                      : YUV\nChroma subsampling               : 4:2:0\nBit depth                        : 8 bits\nScan type                        : Progressive\nBits/(Pixel*Frame)               : 0.293\nStream size                      : 962 MiB (78%)\nWriting library                  : XviD 1.1.2 (UTC 2006-11-01)\n\nAudio:\n\nFormat                           : AC-3\nFormat/Info                      : Audio Coding 3\nMode extension                   : CM (complete main)\nCodec ID                         : 2000\nDuration                         : 1h 23mn\nBit rate mode                    : Constant\nBit rate                         : 448 Kbps\nChannel(s)                       : 6 channels\nChannel positions                : Front: L C R, Side: L R, LFE\nSampling rate                    : 48.0 KHz\nBit depth                        : 16 bits\nStream size                      : 269 MiB (22%)\nAlignment                        : Aligned on interleaves\nInterleave, duration             : 32 ms (0.80 video frame)\nInterleave, preload duration     : 32 ms\n\n","torrent":{"xt":"urn:btih:b5da603bcac2bf5426259fc4956900562c8e57e4","amp;dn":"Priest+2011+DVDrip+English+Klam","amp;tr":["udp%3A%2F%2Ftracker.openbittorrent.com%3A80","udp%3A%2F%2Fopen.demonii.com%3A1337","udp%3A%2F%2Ftracker.coppersurfer.tk%3A6969","udp%3A%2F%2Fexodus.desync.com%3A6969"],"infoHash":"b5da603bcac2bf5426259fc4956900562c8e57e4","infoHashBuffer":{"type":"Buffer","data":[181,218,96,59,202,194,191,84,38,37,159,196,149,105,0,86,44,142,87,228]},"announce":[],"urlList":[]}}